<svg xmlns="http://www.w3.org/2000/svg" width="980" height="500" viewBox="0 0 980 500" role="img" aria-labelledby="title desc">
  <title id="title">AZ-104 Day 1 RBAC and Governance Flow</title>
  <desc id="desc">Diagram showing Azure scope hierarchy with RBAC inheritance and governance controls across scopes.</desc>
  <defs>
    <style>
      .bg { fill: #0f172a; }
      .panel { fill: #111827; stroke: #334155; stroke-width: 2; rx: 12; }
      .scope { fill: #1d4ed8; stroke: #93c5fd; stroke-width: 2; rx: 10; }
      .gov { fill: #065f46; stroke: #6ee7b7; stroke-width: 2; rx: 10; }
      .txt { fill: #e5e7eb; font-family: Segoe UI, Arial, sans-serif; font-size: 18px; }
      .sub { fill: #cbd5e1; font-family: Segoe UI, Arial, sans-serif; font-size: 14px; }
      .arrow { stroke: #f8fafc; stroke-width: 3; marker-end: url(#m); }
    </style>
    <marker id="m" markerWidth="10" markerHeight="10" refX="8" refY="3" orient="auto" markerUnits="strokeWidth">
      <path d="M0,0 L0,6 L9,3 z" fill="#f8fafc"/>
    </marker>
  </defs>

  <rect class="bg" x="0" y="0" width="980" height="500"/>
  <rect class="panel" x="20" y="20" width="940" height="460"/>

  <text class="txt" x="40" y="60">AZ-104 Day 1: Scope, RBAC, and Governance Controls</text>
  <text class="sub" x="40" y="86">Permissions are additive and inherit downward. Assign at the lowest possible scope.</text>

  <rect class="scope" x="60" y="130" width="220" height="56"/>
  <text class="txt" x="90" y="165">Management Group</text>

  <rect class="scope" x="60" y="220" width="220" height="56"/>
  <text class="txt" x="110" y="255">Subscription</text>

  <rect class="scope" x="60" y="310" width="220" height="56"/>
  <text class="txt" x="104" y="345">Resource Group</text>

  <rect class="scope" x="60" y="400" width="220" height="56"/>
  <text class="txt" x="123" y="435">Resource</text>

  <line class="arrow" x1="170" y1="186" x2="170" y2="218"/>
  <line class="arrow" x1="170" y1="276" x2="170" y2="308"/>
  <line class="arrow" x1="170" y1="366" x2="170" y2="398"/>

  <text class="sub" x="320" y="155">RBAC: Who + Role + Scope</text>
  <text class="sub" x="320" y="180">Owner: resources + role assignments</text>
  <text class="sub" x="320" y="203">Contributor: resources only (NotActions blocks Microsoft.Authorization/*)</text>
  <text class="sub" x="320" y="226">Reader: view only</text>
  <text class="sub" x="320" y="249">User Access Admin: role assignments only</text>

  <rect class="gov" x="520" y="130" width="390" height="92"/>
  <text class="txt" x="550" y="168">Azure Policy</text>
  <text class="sub" x="550" y="193">Defines WHAT is allowed (e.g., require tags, restrict regions)</text>

  <rect class="gov" x="520" y="238" width="390" height="92"/>
  <text class="txt" x="550" y="276">Resource Locks</text>
  <text class="sub" x="550" y="301">CanNotDelete / ReadOnly; can block actions even when RBAC allows them</text>

  <rect class="gov" x="520" y="346" width="390" height="92"/>
  <text class="txt" x="550" y="384">Tags</text>
  <text class="sub" x="550" y="409">Organize and track cost; tags alone do not enforce compliance</text>

  <line class="arrow" x1="280" y1="158" x2="515" y2="158"/>
  <line class="arrow" x1="280" y1="264" x2="515" y2="284"/>
  <line class="arrow" x1="280" y1="430" x2="515" y2="392"/>
</svg>
