<svg xmlns="http://www.w3.org/2000/svg" width="1200" height="560" viewBox="0 0 1200 560" role="img" aria-labelledby="title desc">
  <title id="title">AZ-104 Day 1 RBAC and Governance Flow</title>
  <desc id="desc">Diagram showing Azure scope hierarchy with RBAC inheritance and governance controls across scopes.</desc>
  <defs>
    <style>
      .bg { fill: #0f172a; }
      .panel { fill: #111827; stroke: #334155; stroke-width: 2; rx: 12; }
      .scope { fill: #1d4ed8; stroke: #93c5fd; stroke-width: 2; rx: 10; }
      .gov { fill: #065f46; stroke: #6ee7b7; stroke-width: 2; rx: 10; }
      .txt { fill: #e5e7eb; font-family: Segoe UI, Arial, sans-serif; font-size: 20px; }
      .sub { fill: #cbd5e1; font-family: Segoe UI, Arial, sans-serif; font-size: 12px; }
      .arrow { stroke: #f8fafc; stroke-width: 3; marker-end: url(#m); }
    </style>
    <marker id="m" markerWidth="10" markerHeight="10" refX="8" refY="3" orient="auto" markerUnits="strokeWidth">
      <path d="M0,0 L0,6 L9,3 z" fill="#f8fafc"/>
    </marker>
  </defs>

  <rect class="bg" x="0" y="0" width="1200" height="560"/>
  <rect class="panel" x="20" y="20" width="1160" height="520"/>

  <text class="txt" x="40" y="60">AZ-104 Day 1: Scope, RBAC, and Governance Controls</text>
  <text class="sub" x="40" y="86">Permissions are additive and inherit downward. Assign at the lowest possible scope.</text>

  <rect class="scope" x="70" y="130" width="280" height="62"/>
  <text class="txt" x="106" y="170">Management Group</text>

  <rect class="scope" x="70" y="225" width="280" height="62"/>
  <text class="txt" x="140" y="265">Subscription</text>

  <rect class="scope" x="70" y="320" width="280" height="62"/>
  <text class="txt" x="132" y="360">Resource Group</text>

  <rect class="scope" x="70" y="415" width="280" height="62"/>
  <text class="txt" x="166" y="455">Resource</text>

  <line class="arrow" x1="210" y1="192" x2="210" y2="223"/>
  <line class="arrow" x1="210" y1="287" x2="210" y2="318"/>
  <line class="arrow" x1="210" y1="382" x2="210" y2="413"/>

  <text class="sub" x="400" y="152">RBAC: Who + Role + Scope</text>
  <text class="sub" x="400" y="176">Owner: resources + role assignments</text>
  <text class="sub" x="400" y="198">Contributor: resources only</text>
  <text class="sub" x="400" y="220">(NotActions blocks Microsoft.Authorization/*)</text>
  <text class="sub" x="400" y="242">Reader: view only</text>
  <text class="sub" x="400" y="264">User Access Admin: role assignments only</text>

  <rect class="gov" x="650" y="130" width="470" height="110"/>
  <text class="txt" x="685" y="172">Azure Policy</text>
  <text class="sub" x="685" y="200">
    <tspan x="685" dy="0">Defines WHAT is allowed</tspan>
    <tspan x="685" dy="18">(e.g., require tags, restrict regions)</tspan>
  </text>

  <rect class="gov" x="650" y="255" width="470" height="110"/>
  <text class="txt" x="685" y="297">Resource Locks</text>
  <text class="sub" x="685" y="325">
    <tspan x="685" dy="0">CanNotDelete / ReadOnly</tspan>
    <tspan x="685" dy="18">Can block actions even when RBAC allows them</tspan>
  </text>

  <rect class="gov" x="650" y="380" width="470" height="110"/>
  <text class="txt" x="685" y="422">Tags</text>
  <text class="sub" x="685" y="450">
    <tspan x="685" dy="0">Organize and track cost</tspan>
    <tspan x="685" dy="18">Tags alone do not enforce compliance</tspan>
  </text>

  <line class="arrow" x1="350" y1="160" x2="645" y2="160"/>
  <line class="arrow" x1="350" y1="256" x2="645" y2="310"/>
  <line class="arrow" x1="350" y1="446" x2="645" y2="435"/>
</svg>
